<?xml version="1.0" encoding="UTF-8" standalone="no"?>
<!-- Created with Inkscape (http://www.inkscape.org/) -->

<svg
   width="128"
   height="128"
   viewBox="0 0 33.866667 33.866667"
   version="1.1"
   id="svg2932"
   inkscape:version="1.1 (c68e22c387, 2021-05-23)"
   sodipodi:docname="Mod Icons.svg"
   xmlns:inkscape="http://www.inkscape.org/namespaces/inkscape"
   xmlns:sodipodi="http://sodipodi.sourceforge.net/DTD/sodipodi-0.dtd"
   xmlns="http://www.w3.org/2000/svg"
   xmlns:svg="http://www.w3.org/2000/svg">
  <sodipodi:namedview
     id="namedview2934"
     pagecolor="#0a0a0a"
     bordercolor="#666666"
     borderopacity="0.34509804"
     inkscape:pageshadow="2"
     inkscape:pageopacity="0"
     inkscape:pagecheckerboard="false"
     inkscape:document-units="mm"
     showgrid="false"
     units="px"
     width="1920in"
     inkscape:showpageshadow="false"
     inkscape:snap-page="true"
     inkscape:zoom="1.115625"
     inkscape:cx="245.15406"
     inkscape:cy="175.2381"
     inkscape:window-width="1920"
     inkscape:window-height="1057"
     inkscape:window-x="-8"
     inkscape:window-y="-8"
     inkscape:window-maximized="1"
     inkscape:current-layer="layer2" />
  <defs
     id="defs2929" />
  <g
     inkscape:groupmode="layer"
     id="layer1"
     inkscape:label="bg"
     sodipodi:insensitive="true">
    <g
       id="g6778">
      <rect
         style="fill:#59ffc2;fill-opacity:1;stroke-width:3.96875;stroke-linecap:round;stroke-dasharray:3.96875, 7.9375;stroke-dashoffset:17.6213"
         id="rect5357"
         width="33.866665"
         height="33.866665"
         x="0"
         y="0"
         ry="2.6458333" />
      <path
         id="rect5439"
         style="fill:#262626;stroke-width:3.96875;stroke-linecap:round;stroke-dasharray:3.96875, 7.9375;stroke-dashoffset:17.6213"
         d="M 24.736328,1.5878906 C 17.373288,1.6057953 10.008212,1.54959 2.6464844,1.6210938 1.6214703,1.5534591 1.4516902,2.8132417 1.5878628,3.5746094 c 0.018487,9.3374526 -0.057041,18.6827566 0.058622,28.0152346 0.4649565,1.016208 1.7491609,0.631326 2.6281249,0.689675 9.1047173,-0.01505 18.2176873,0.0495 27.3171873,-0.05882 0.983932,-0.439475 0.653709,-1.678687 0.687597,-2.528125 -0.01165,-9.118306 0.03471,-18.24128 -0.04307,-27.3566405 -0.37295,-1.02744 -1.654697,-0.7378194 -2.498818,-0.7685242 -1.667061,0.00683 -3.334121,0.013652 -5.001182,0.020477 z" />
    </g>
    <g
       id="g6784"
       transform="translate(33.866665)">
      <rect
         style="fill:#59ffc2;fill-opacity:1;stroke-width:3.96875;stroke-linecap:round;stroke-dasharray:3.96875, 7.9375;stroke-dashoffset:17.6213"
         id="rect6780"
         width="33.866665"
         height="33.866665"
         x="0"
         y="0"
         ry="2.6458333" />
      <path
         id="path6782"
         style="fill:#262626;stroke-width:3.96875;stroke-linecap:round;stroke-dasharray:3.96875, 7.9375;stroke-dashoffset:17.6213"
         d="M 24.736328,1.5878906 C 17.373288,1.6057953 10.008212,1.54959 2.6464844,1.6210938 1.6214703,1.5534591 1.4516902,2.8132417 1.5878628,3.5746094 c 0.018487,9.3374526 -0.057041,18.6827566 0.058622,28.0152346 0.4649565,1.016208 1.7491609,0.631326 2.6281249,0.689675 9.1047173,-0.01505 18.2176873,0.0495 27.3171873,-0.05882 0.983932,-0.439475 0.653709,-1.678687 0.687597,-2.528125 -0.01165,-9.118306 0.03471,-18.24128 -0.04307,-27.3566405 -0.37295,-1.02744 -1.654697,-0.7378194 -2.498818,-0.7685242 -1.667061,0.00683 -3.334121,0.013652 -5.001182,0.020477 z" />
    </g>
    <g
       id="g6790"
       transform="translate(67.73333)">
      <rect
         style="fill:#59ffc2;fill-opacity:1;stroke-width:3.96875;stroke-linecap:round;stroke-dasharray:3.96875, 7.9375;stroke-dashoffset:17.6213"
         id="rect6786"
         width="33.866665"
         height="33.866665"
         x="0"
         y="0"
         ry="2.6458333" />
      <path
         id="path6788"
         style="fill:#262626;stroke-width:3.96875;stroke-linecap:round;stroke-dasharray:3.96875, 7.9375;stroke-dashoffset:17.6213"
         d="M 24.736328,1.5878906 C 17.373288,1.6057953 10.008212,1.54959 2.6464844,1.6210938 1.6214703,1.5534591 1.4516902,2.8132417 1.5878628,3.5746094 c 0.018487,9.3374526 -0.057041,18.6827566 0.058622,28.0152346 0.4649565,1.016208 1.7491609,0.631326 2.6281249,0.689675 9.1047173,-0.01505 18.2176873,0.0495 27.3171873,-0.05882 0.983932,-0.439475 0.653709,-1.678687 0.687597,-2.528125 -0.01165,-9.118306 0.03471,-18.24128 -0.04307,-27.3566405 -0.37295,-1.02744 -1.654697,-0.7378194 -2.498818,-0.7685242 -1.667061,0.00683 -3.334121,0.013652 -5.001182,0.020477 z" />
    </g>
    <g
       id="g7228">
      <rect
         style="fill:#ff9559;fill-opacity:1;stroke-width:3.96875;stroke-linecap:round;stroke-dasharray:3.96875, 7.9375;stroke-dashoffset:17.6213"
         id="rect6792"
         width="33.866665"
         height="33.866665"
         x="0"
         y="33.866665"
         ry="2.6458333" />
      <path
         id="path6794"
         style="fill:#262626;stroke-width:3.96875;stroke-linecap:round;stroke-dasharray:3.96875, 7.9375;stroke-dashoffset:17.6213"
         d="m 24.736328,35.454556 c -7.36304,0.0179 -14.728116,-0.0383 -22.0898436,0.0332 -1.0250141,-0.06763 -1.1947942,1.192148 -1.0586216,1.953515 0.018487,9.337453 -0.057041,18.682757 0.058622,28.015235 0.4649565,1.016208 1.7491609,0.631326 2.6281249,0.689675 9.1047173,-0.01505 18.2176873,0.0495 27.3171873,-0.05882 0.983932,-0.439475 0.653709,-1.678687 0.687597,-2.528125 -0.01165,-9.118306 0.03471,-18.24128 -0.04307,-27.356641 -0.37295,-1.027439 -1.654697,-0.737819 -2.498818,-0.768524 -1.667061,0.0068 -3.334121,0.01365 -5.001182,0.02048 z" />
    </g>
    <g
       id="g7224">
      <rect
         style="fill:#ff9559;fill-opacity:1;stroke-width:3.96875;stroke-linecap:round;stroke-dasharray:3.96875, 7.9375;stroke-dashoffset:17.6213"
         id="rect6798"
         width="33.866665"
         height="33.866665"
         x="33.866665"
         y="33.866665"
         ry="2.6458333" />
      <path
         id="path6800"
         style="fill:#262626;stroke-width:3.96875;stroke-linecap:round;stroke-dasharray:3.96875, 7.9375;stroke-dashoffset:17.6213"
         d="m 58.602993,35.454556 c -7.36304,0.0179 -14.728116,-0.0383 -22.089844,0.0332 -1.025014,-0.06763 -1.194794,1.192148 -1.058621,1.953515 0.01849,9.337453 -0.05704,18.682757 0.05862,28.015235 0.464956,1.016208 1.749161,0.631326 2.628125,0.689675 9.104717,-0.01505 18.217687,0.0495 27.317187,-0.05882 0.983932,-0.439475 0.653709,-1.678687 0.687597,-2.528125 -0.01165,-9.118306 0.03471,-18.24128 -0.04307,-27.356641 -0.37295,-1.027439 -1.654697,-0.737819 -2.498818,-0.768524 -1.667061,0.0068 -3.334121,0.01365 -5.001182,0.02048 z" />
    </g>
    <g
       id="g7220">
      <rect
         style="fill:#ff9559;fill-opacity:1;stroke-width:3.96875;stroke-linecap:round;stroke-dasharray:3.96875, 7.9375;stroke-dashoffset:17.6213"
         id="rect6804"
         width="33.866665"
         height="33.866665"
         x="67.73333"
         y="33.866665"
         ry="2.6458333" />
      <path
         id="path6806"
         style="fill:#262626;stroke-width:3.96875;stroke-linecap:round;stroke-dasharray:3.96875, 7.9375;stroke-dashoffset:17.6213"
         d="m 92.469658,35.454556 c -7.36304,0.0179 -14.728116,-0.0383 -22.089844,0.0332 -1.025014,-0.06763 -1.194794,1.192148 -1.058621,1.953515 0.01849,9.337453 -0.05704,18.682757 0.05862,28.015235 0.464956,1.016208 1.749161,0.631326 2.628125,0.689675 9.104717,-0.01505 18.217687,0.0495 27.317187,-0.05882 0.983935,-0.439475 0.653709,-1.678687 0.687595,-2.528125 -0.0117,-9.118306 0.0347,-18.24128 -0.04307,-27.356641 -0.37295,-1.027439 -1.654697,-0.737819 -2.498818,-0.768524 -1.667061,0.0068 -3.334121,0.01365 -5.001182,0.02048 z" />
    </g>
    <g
       id="g7318">
      <rect
         style="fill:#59bbff;fill-opacity:1;stroke-width:3.96875;stroke-linecap:round;stroke-dasharray:3.96875, 7.9375;stroke-dashoffset:17.6213"
         id="rect6810"
         width="33.866665"
         height="33.866665"
         x="0"
         y="67.73333"
         ry="2.6458333" />
      <path
         id="path6812"
         style="fill:#262626;stroke-width:3.96875;stroke-linecap:round;stroke-dasharray:3.96875, 7.9375;stroke-dashoffset:17.6213"
         d="m 24.736328,69.321221 c -7.36304,0.0179 -14.728116,-0.0383 -22.0898436,0.0332 -1.0250141,-0.06763 -1.1947942,1.192148 -1.0586216,1.953515 0.018487,9.337453 -0.057041,18.682757 0.058622,28.015235 0.4649565,1.016209 1.7491609,0.631326 2.6281249,0.689679 9.1047173,-0.01505 18.2176873,0.0495 27.3171873,-0.05882 0.983932,-0.439475 0.653709,-1.678687 0.687597,-2.528125 -0.01165,-9.118306 0.03471,-18.24128 -0.04307,-27.35664 -0.37295,-1.027441 -1.654697,-0.73782 -2.498818,-0.768525 -1.667061,0.0068 -3.334121,0.01365 -5.001182,0.02048 z" />
    </g>
    <g
       id="g7314">
      <rect
         style="fill:#59bbff;fill-opacity:1;stroke-width:3.96875;stroke-linecap:round;stroke-dasharray:3.96875, 7.9375;stroke-dashoffset:17.6213"
         id="rect6816"
         width="33.866665"
         height="33.866665"
         x="33.866665"
         y="67.73333"
         ry="2.6458333" />
      <path
         id="path6818"
         style="fill:#262626;stroke-width:3.96875;stroke-linecap:round;stroke-dasharray:3.96875, 7.9375;stroke-dashoffset:17.6213"
         d="m 58.602993,69.321221 c -7.36304,0.0179 -14.728116,-0.0383 -22.089844,0.0332 -1.025014,-0.06763 -1.194794,1.192148 -1.058621,1.953515 0.01849,9.337453 -0.05704,18.682757 0.05862,28.015235 0.464956,1.016209 1.749161,0.631326 2.628125,0.689679 9.104717,-0.01505 18.217687,0.0495 27.317187,-0.05882 0.983932,-0.439475 0.653709,-1.678687 0.687597,-2.528125 -0.01165,-9.118306 0.03471,-18.24128 -0.04307,-27.35664 -0.37295,-1.027441 -1.654697,-0.73782 -2.498818,-0.768525 -1.667061,0.0068 -3.334121,0.01365 -5.001182,0.02048 z" />
    </g>
    <g
       id="g7310">
      <rect
         style="fill:#59bbff;fill-opacity:1;stroke-width:3.96875;stroke-linecap:round;stroke-dasharray:3.96875, 7.9375;stroke-dashoffset:17.6213"
         id="rect6822"
         width="33.866665"
         height="33.866665"
         x="67.73333"
         y="67.73333"
         ry="2.6458333" />
      <path
         id="path6824"
         style="fill:#262626;stroke-width:3.96875;stroke-linecap:round;stroke-dasharray:3.96875, 7.9375;stroke-dashoffset:17.6213"
         d="m 92.469658,69.321221 c -7.36304,0.0179 -14.728116,-0.0383 -22.089844,0.0332 -1.025014,-0.06763 -1.194794,1.192148 -1.058621,1.953515 0.01849,9.337453 -0.05704,18.682757 0.05862,28.015235 0.464956,1.016209 1.749161,0.631326 2.628125,0.689679 9.104717,-0.01505 18.217687,0.0495 27.317187,-0.05882 0.983935,-0.439475 0.653709,-1.678687 0.687595,-2.528125 -0.0117,-9.118306 0.0347,-18.24128 -0.04307,-27.35664 -0.37295,-1.027441 -1.654697,-0.73782 -2.498818,-0.768525 -1.667061,0.0068 -3.334121,0.01365 -5.001182,0.02048 z" />
    </g>
    <g
       id="g7216">
      <rect
         style="fill:#ff9559;fill-opacity:1;stroke-width:3.96875;stroke-linecap:round;stroke-dasharray:3.96875, 7.9375;stroke-dashoffset:17.6213"
         id="rect6828"
         width="33.866665"
         height="33.866665"
         x="101.59999"
         y="33.866665"
         ry="2.6458333" />
      <path
         id="path6830"
         style="fill:#262626;stroke-width:3.96875;stroke-linecap:round;stroke-dasharray:3.96875, 7.9375;stroke-dashoffset:17.6213"
         d="m 126.33632,35.454556 c -7.36304,0.0179 -14.72812,-0.0383 -22.08985,0.0332 -1.02501,-0.06763 -1.19479,1.192148 -1.05862,1.953515 0.0185,9.337453 -0.057,18.682757 0.0586,28.015235 0.46496,1.016208 1.74917,0.631326 2.62813,0.689675 9.10472,-0.01505 18.21769,0.0495 27.31719,-0.05882 0.98393,-0.439475 0.65371,-1.678687 0.68759,-2.528125 -0.0117,-9.118306 0.0347,-18.24128 -0.0431,-27.356641 -0.37295,-1.027439 -1.65469,-0.737819 -2.49881,-0.768524 -1.66707,0.0068 -3.33413,0.01365 -5.00119,0.02048 z" />
    </g>
    <g
       id="g7212">
      <rect
         style="fill:#ff9559;fill-opacity:1;stroke-width:3.96875;stroke-linecap:round;stroke-dasharray:3.96875, 7.9375;stroke-dashoffset:17.6213"
         id="rect6834"
         width="33.866665"
         height="33.866665"
         x="135.46666"
         y="33.866665"
         ry="2.6458333" />
      <path
         id="path6836"
         style="fill:#262626;stroke-width:3.96875;stroke-linecap:round;stroke-dasharray:3.96875, 7.9375;stroke-dashoffset:17.6213"
         d="m 160.20299,35.454556 c -7.36304,0.0179 -14.72812,-0.0383 -22.08985,0.0332 -1.02501,-0.06763 -1.19479,1.192148 -1.05862,1.953515 0.0185,9.337453 -0.057,18.682757 0.0586,28.015235 0.46496,1.016208 1.74917,0.631326 2.62813,0.689675 9.10472,-0.01505 18.21769,0.0495 27.31719,-0.05882 0.98393,-0.439475 0.65371,-1.678687 0.68759,-2.528125 -0.0117,-9.118306 0.0347,-18.24128 -0.0431,-27.356641 -0.37295,-1.027439 -1.65469,-0.737819 -2.49881,-0.768524 -1.66707,0.0068 -3.33413,0.01365 -5.00119,0.02048 z" />
    </g>
    <g
       id="g7324"
       transform="translate(67.733337)">
      <rect
         style="fill:#59bbff;fill-opacity:1;stroke-width:3.96875;stroke-linecap:round;stroke-dasharray:3.96875, 7.9375;stroke-dashoffset:17.6213"
         id="rect7320"
         width="33.866665"
         height="33.866665"
         x="67.73333"
         y="67.73333"
         ry="2.6458333" />
      <path
         id="path7322"
         style="fill:#262626;stroke-width:3.96875;stroke-linecap:round;stroke-dasharray:3.96875, 7.9375;stroke-dashoffset:17.6213"
         d="m 92.469658,69.321221 c -7.36304,0.0179 -14.728116,-0.0383 -22.089844,0.0332 -1.025014,-0.06763 -1.194794,1.192148 -1.058621,1.953515 0.01849,9.337453 -0.05704,18.682757 0.05862,28.015235 0.464956,1.016209 1.749161,0.631326 2.628125,0.689679 9.104717,-0.01505 18.217687,0.0495 27.317187,-0.05882 0.983935,-0.439475 0.653709,-1.678687 0.687595,-2.528125 -0.0117,-9.118306 0.0347,-18.24128 -0.04307,-27.35664 -0.37295,-1.027441 -1.654697,-0.73782 -2.498818,-0.768525 -1.667061,0.0068 -3.334121,0.01365 -5.001182,0.02048 z" />
    </g>
    <g
       id="g7330"
       transform="translate(33.866661)">
      <rect
         style="fill:#59bbff;fill-opacity:1;stroke-width:3.96875;stroke-linecap:round;stroke-dasharray:3.96875, 7.9375;stroke-dashoffset:17.6213"
         id="rect7326"
         width="33.866665"
         height="33.866665"
         x="67.73333"
         y="67.73333"
         ry="2.6458333" />
      <path
         id="path7328"
         style="fill:#262626;stroke-width:3.96875;stroke-linecap:round;stroke-dasharray:3.96875, 7.9375;stroke-dashoffset:17.6213"
         d="m 92.469658,69.321221 c -7.36304,0.0179 -14.728116,-0.0383 -22.089844,0.0332 -1.025014,-0.06763 -1.194794,1.192148 -1.058621,1.953515 0.01849,9.337453 -0.05704,18.682757 0.05862,28.015235 0.464956,1.016209 1.749161,0.631326 2.628125,0.689679 9.104717,-0.01505 18.217687,0.0495 27.317187,-0.05882 0.983935,-0.439475 0.653709,-1.678687 0.687595,-2.528125 -0.0117,-9.118306 0.0347,-18.24128 -0.04307,-27.35664 -0.37295,-1.027441 -1.654697,-0.73782 -2.498818,-0.768525 -1.667061,0.0068 -3.334121,0.01365 -5.001182,0.02048 z" />
    </g>
  </g>
  <g
     inkscape:groupmode="layer"
     id="layer2"
     inkscape:label="text">
    <text
       xml:space="preserve"
       style="font-size:7.7611px;line-height:1.25;font-family:'Futura Bk BT';-inkscape-font-specification:'Futura Bk BT, Normal';text-align:end;text-anchor:end;fill:#59bbff;stroke-width:0.264583"
       x="29.512852"
       y="10.197946"
       id="text12101"><tspan
         sodipodi:role="line"
         id="tspan12099"
         style="text-align:end;text-anchor:end;fill:#59bbff;stroke-width:0.264583"
         x="29.512852"
         y="10.197946">EZ</tspan></text>
  </g>
</svg>
