<?xml version="1.0" encoding="UTF-8" standalone="no"?>
<svg
   xmlns:dc="http://purl.org/dc/elements/1.1/"
   xmlns:cc="http://creativecommons.org/ns#"
   xmlns:rdf="http://www.w3.org/1999/02/22-rdf-syntax-ns#"
   xmlns:svg="http://www.w3.org/2000/svg"
   xmlns="http://www.w3.org/2000/svg"
   xmlns:xlink="http://www.w3.org/1999/xlink"
   xmlns:sodipodi="http://sodipodi.sourceforge.net/DTD/sodipodi-0.dtd"
   xmlns:inkscape="http://www.inkscape.org/namespaces/inkscape"
   width="1920"
   height="1080"
   viewBox="0 0 1920 1080"
   version="1.1"
   id="svg8"
   inkscape:version="1.0.2 (e86c870879, 2021-01-15)"
   inkscape:export-filename="/home/onind/Pictures/Graphic Design Stuff/OniSkin v0.0.1/play-skip@2x.png"
   inkscape:export-xdpi="136.53334"
   inkscape:export-ydpi="136.53334"
   sodipodi:docname="Skip Notification.svg">
  <defs
     id="defs2">
    <inkscape:path-effect
       effect="bspline"
       id="path-effect1974"
       is_visible="true"
       lpeversion="1"
       weight="33.333333"
       steps="2"
       helper_size="0"
       apply_no_weight="true"
       apply_with_weight="true"
       only_selected="false" />
    <inkscape:path-effect
       effect="bspline"
       id="path-effect1970"
       is_visible="true"
       lpeversion="1"
       weight="33.333333"
       steps="2"
       helper_size="0"
       apply_no_weight="true"
       apply_with_weight="true"
       only_selected="false" />
    <inkscape:path-effect
       effect="bspline"
       id="path-effect1966"
       is_visible="true"
       lpeversion="1"
       weight="33.333333"
       steps="2"
       helper_size="0"
       apply_no_weight="true"
       apply_with_weight="true"
       only_selected="false" />
    <inkscape:path-effect
       effect="bspline"
       id="path-effect1962"
       is_visible="true"
       lpeversion="1"
       weight="33.333333"
       steps="2"
       helper_size="0"
       apply_no_weight="true"
       apply_with_weight="true"
       only_selected="false" />
    <inkscape:path-effect
       effect="bspline"
       id="path-effect1958"
       is_visible="true"
       lpeversion="1"
       weight="33.333333"
       steps="2"
       helper_size="0"
       apply_no_weight="true"
       apply_with_weight="true"
       only_selected="false" />
    <inkscape:path-effect
       effect="bspline"
       id="path-effect1954"
       is_visible="true"
       lpeversion="1"
       weight="33.333333"
       steps="2"
       helper_size="0"
       apply_no_weight="true"
       apply_with_weight="true"
       only_selected="false" />
    <inkscape:path-effect
       effect="bspline"
       id="path-effect1942"
       is_visible="true"
       lpeversion="1"
       weight="33.333333"
       steps="2"
       helper_size="0"
       apply_no_weight="true"
       apply_with_weight="true"
       only_selected="false" />
  </defs>
  <sodipodi:namedview
     id="base"
     pagecolor="#323232"
     bordercolor="#666666"
     borderopacity="1.0"
     inkscape:pageopacity="0"
     inkscape:pageshadow="2"
     inkscape:zoom="0.49497475"
     inkscape:cx="985.78172"
     inkscape:cy="696.74826"
     inkscape:document-units="px"
     inkscape:current-layer="layer2"
     inkscape:document-rotation="0"
     showgrid="false"
     borderlayer="true"
     inkscape:snap-page="true"
     units="px"
     inkscape:snap-global="true"
     showguides="false"
     inkscape:window-width="1920"
     inkscape:window-height="1029"
     inkscape:window-x="0"
     inkscape:window-y="27"
     inkscape:window-maximized="1">
    <inkscape:grid
       type="xygrid"
       id="grid1900" />
    <sodipodi:guide
       position="960,340"
       orientation="-160,0"
       id="guide1904" />
    <sodipodi:guide
       position="960,220"
       orientation="0,15"
       id="guide1908" />
    <sodipodi:guide
       position="960,240.53798"
       orientation="0,15"
       id="guide1912" />
  </sodipodi:namedview>
  <metadata
     id="metadata5">
    <rdf:RDF>
      <cc:Work
         rdf:about="">
        <dc:format>image/svg+xml</dc:format>
        <dc:type
           rdf:resource="http://purl.org/dc/dcmitype/StillImage" />
        <dc:title />
      </cc:Work>
    </rdf:RDF>
  </metadata>
  <g
     inkscape:label="Layer 1"
     inkscape:groupmode="layer"
     id="layer1">
    <text
       xml:space="preserve"
       style="font-size:40px;line-height:1.25;font-family:'Futura Lt BT';-inkscape-font-specification:'Futura Lt BT, Normal';text-align:center;text-anchor:middle"
       x="960.38086"
       y="891.57141"
       id="text1894"><tspan
         sodipodi:role="line"
         id="tspan1892"
         x="960.38086"
         y="891.57141"
         style="font-style:normal;font-variant:normal;font-weight:normal;font-stretch:normal;font-size:40px;font-family:'Futura Md BT';-inkscape-font-specification:'Futura Md BT';fill:#ffffff">space to skip</tspan></text>
    <text
       xml:space="preserve"
       style="font-style:normal;font-variant:normal;font-weight:normal;font-stretch:normal;font-size:13.93px;line-height:1.25;font-family:'Futura Md BT';-inkscape-font-specification:'Futura Md BT';text-align:center;text-anchor:middle;fill:#ffffff;stroke-width:0.999999"
       x="960.6972"
       y="913.40527"
       id="text1898"><tspan
         sodipodi:role="line"
         id="tspan1896"
         x="960.6972"
         y="913.40527"
         style="stroke-width:0.999999">you'll have to wait a while otherwise!</tspan></text>
  </g>
  <g
     inkscape:groupmode="layer"
     id="layer16"
     inkscape:label="spacebar 1">
    <path
       id="path2042-5"
       style="fill:#ffffff;stroke:none"
       d="M 960,860 H 841.35905 c 0,-1.34853 10.4102,-15.86922 12.2751,-16.85129 1.9583,-1.03127 48.32465,-3.68669 55.35465,-3.68669 H 960 M 960,860 h 118.6409 c 0,-1.34853 -10.4102,-15.86922 -12.2751,-16.85129 -1.9583,-1.03127 -48.3246,-3.68669 -55.3546,-3.68669 H 960" />
  </g>
  <g
     inkscape:groupmode="layer"
     id="layer2"
     inkscape:label="bubbl"
     style="opacity:0.11776332">
    <circle
       style="fill:#ffffff;fill-opacity:0.309804;stroke-width:20;stroke-linecap:round"
       id="path856"
       cx="-210.91985"
       cy="890.14636"
       r="84.04467" />
    <use
       id="use960"
       inkscape:spray-origin="#path856"
       xlink:href="#path856"
       transform="matrix(1.6133237,0,0,1.6133237,411.93949,-441.72277)"
       style="stroke-width:0.619838"
       x="0"
       y="0"
       width="100%"
       height="100%" />
    <use
       id="use962"
       inkscape:spray-origin="#path856"
       xlink:href="#path856"
       transform="matrix(0.63935833,0,0,0.63935833,196.20763,484.36617)"
       style="stroke-width:1.56407"
       x="0"
       y="0"
       width="100%"
       height="100%" />
    <use
       id="use964"
       inkscape:spray-origin="#path856"
       xlink:href="#path856"
       transform="matrix(0.57222034,0,0,0.57222034,256.04559,520.96478)"
       style="stroke-width:1.74758"
       x="0"
       y="0"
       width="100%"
       height="100%" />
    <use
       id="use966"
       inkscape:spray-origin="#path856"
       xlink:href="#path856"
       transform="matrix(1.4337681,0,0,1.4337681,460.7806,-225.47144)"
       style="stroke-width:0.697463"
       x="0"
       y="0"
       width="100%"
       height="100%" />
    <use
       id="use968"
       inkscape:spray-origin="#path856"
       xlink:href="#path856"
       transform="matrix(1.0094551,0,0,1.0094551,555.21607,160.2966)"
       style="stroke-width:0.990633"
       x="0"
       y="0"
       width="100%"
       height="100%" />
    <use
       id="use970"
       inkscape:spray-origin="#path856"
       xlink:href="#path856"
       transform="matrix(0.90756441,0,0,0.90756441,567.49048,269.05317)"
       style="stroke-width:1.10185"
       x="0"
       y="0"
       width="100%"
       height="100%" />
    <use
       id="use972"
       inkscape:spray-origin="#path856"
       xlink:href="#path856"
       transform="matrix(0.77880006,0,0,0.77880006,571.82842,282.91411)"
       style="stroke-width:1.28403"
       x="0"
       y="0"
       width="100%"
       height="100%" />
    <use
       id="use974"
       inkscape:spray-origin="#path856"
       xlink:href="#path856"
       transform="matrix(1.4101271,0,0,1.4101271,734.43151,-228.42438)"
       style="stroke-width:0.709156"
       x="0"
       y="0"
       width="100%"
       height="100%" />
    <use
       id="use976"
       inkscape:spray-origin="#path856"
       xlink:href="#path856"
       transform="matrix(1.6513497,0,0,1.6513497,962.07073,-447.56355)"
       style="stroke-width:0.605565"
       x="0"
       y="0"
       width="100%"
       height="100%" />
    <use
       id="use978"
       inkscape:spray-origin="#path856"
       xlink:href="#path856"
       transform="matrix(1.633626,0,0,1.633626,1114.6044,-480.09194)"
       style="stroke-width:0.612135"
       x="0"
       y="0"
       width="100%"
       height="100%" />
    <use
       id="use980"
       inkscape:spray-origin="#path856"
       xlink:href="#path856"
       transform="matrix(0.87673024,0,0,0.87673024,1198.7708,273.94928)"
       style="stroke-width:1.1406"
       x="0"
       y="0"
       width="100%"
       height="100%" />
    <use
       id="use982"
       inkscape:spray-origin="#path856"
       xlink:href="#path856"
       transform="matrix(1.2471902,0,0,1.2471902,1300.3516,-116.34187)"
       style="stroke-width:0.801802"
       x="0"
       y="0"
       width="100%"
       height="100%" />
    <use
       id="use984"
       inkscape:spray-origin="#path856"
       xlink:href="#path856"
       transform="matrix(0.6236477,0,0,0.6236477,1241.8375,446.149)"
       style="stroke-width:1.60347"
       x="0"
       y="0"
       width="100%"
       height="100%" />
    <use
       id="use986"
       inkscape:spray-origin="#path856"
       xlink:href="#path856"
       transform="matrix(0.95824806,0,0,0.95824806,1524.0941,153.30277)"
       style="stroke-width:1.04357"
       x="0"
       y="0"
       width="100%"
       height="100%" />
    <use
       id="use988"
       inkscape:spray-origin="#path856"
       xlink:href="#path856"
       transform="matrix(1.1380083,0,0,1.1380083,1730.6265,6.5505738)"
       style="stroke-width:0.878728"
       x="0"
       y="0"
       width="100%"
       height="100%" />
    <use
       id="use990"
       inkscape:spray-origin="#path856"
       xlink:href="#path856"
       transform="matrix(0.67523537,0,0,0.67523537,1762.3978,424.41948)"
       style="stroke-width:1.48097"
       x="0"
       y="0"
       width="100%"
       height="100%" />
    <use
       id="use992"
       inkscape:spray-origin="#path856"
       xlink:href="#path856"
       transform="matrix(0.34847567,0,0,0.34847567,1835.853,634.33609)"
       style="stroke-width:2.86964"
       x="0"
       y="0"
       width="100%"
       height="100%" />
    <use
       id="use994"
       inkscape:spray-origin="#path856"
       xlink:href="#path856"
       transform="matrix(0.69001554,0,0,0.69001554,2000.1581,395.19317)"
       style="stroke-width:1.44924"
       x="0"
       y="0"
       width="100%"
       height="100%" />
    <use
       id="use996"
       inkscape:spray-origin="#path856"
       xlink:href="#path856"
       transform="matrix(0.76151419,0,0,0.76151419,2034.9793,277.72935)"
       style="stroke-width:1.31317"
       x="0"
       y="0"
       width="100%"
       height="100%" />
    <use
       id="use998"
       inkscape:spray-origin="#path856"
       xlink:href="#path856"
       transform="matrix(0.89376738,0,0,0.89376738,2175.7472,124.78364)"
       style="stroke-width:1.11886"
       x="0"
       y="0"
       width="100%"
       height="100%" />
    <use
       id="use1000"
       inkscape:spray-origin="#path856"
       xlink:href="#path856"
       transform="matrix(1.0611136,0,0,1.0611136,2221.6329,-10.857204)"
       style="stroke-width:0.942406"
       x="0"
       y="0"
       width="100%"
       height="100%" />
    <use
       id="use1002"
       inkscape:spray-origin="#path856"
       xlink:href="#path856"
       transform="matrix(1.4813905,0,0,1.4813905,2279.1017,-370.16886)"
       style="stroke-width:0.675041"
       x="0"
       y="0"
       width="100%"
       height="100%" />
    <use
       id="use1004"
       inkscape:spray-origin="#path856"
       xlink:href="#path856"
       transform="matrix(1.1493223,0,0,1.1493223,2149.1331,4.7717113)"
       style="stroke-width:0.870078"
       x="0"
       y="0"
       width="100%"
       height="100%" />
    <use
       id="use1006"
       inkscape:spray-origin="#path856"
       xlink:href="#path856"
       transform="matrix(1.2426847,0,0,1.2426847,2156.5077,-145.46663)"
       style="stroke-width:0.804709"
       x="0"
       y="0"
       width="100%"
       height="100%" />
    <use
       id="use1008"
       inkscape:spray-origin="#path856"
       xlink:href="#path856"
       transform="matrix(0.35007075,0,0,0.35007075,108.33429,579.32275)"
       style="stroke-width:2.85657"
       x="0"
       y="0"
       width="100%"
       height="100%" />
    <use
       id="use1010"
       inkscape:spray-origin="#path856"
       xlink:href="#path856"
       transform="matrix(0.55588119,0,0,0.55588119,271.53407,380.71747)"
       style="stroke-width:1.79895"
       x="0"
       y="0"
       width="100%"
       height="100%" />
    <use
       id="use1012"
       inkscape:spray-origin="#path856"
       xlink:href="#path856"
       transform="matrix(1.6546405,0,0,1.6546405,776.02342,-649.37766)"
       style="stroke-width:0.604361"
       x="0"
       y="0"
       width="100%"
       height="100%" />
    <use
       id="use1014"
       inkscape:spray-origin="#path856"
       xlink:href="#path856"
       transform="matrix(0.82511115,0,0,0.82511115,840.18105,58.092877)"
       style="stroke-width:1.21196"
       x="0"
       y="0"
       width="100%"
       height="100%" />
    <use
       id="use1016"
       inkscape:spray-origin="#path856"
       xlink:href="#path856"
       transform="matrix(1.3899032,0,0,1.3899032,1034.8735,-405.55682)"
       style="stroke-width:0.719475"
       x="0"
       y="0"
       width="100%"
       height="100%" />
    <use
       id="use1018"
       inkscape:spray-origin="#path856"
       xlink:href="#path856"
       transform="matrix(0.31643038,0,0,0.31643038,971.51392,631.32255)"
       style="stroke-width:3.16025"
       x="0"
       y="0"
       width="100%"
       height="100%" />
    <use
       id="use1020"
       inkscape:spray-origin="#path856"
       xlink:href="#path856"
       transform="matrix(0.38167554,0,0,0.38167554,1051.7122,508.70556)"
       style="stroke-width:2.62003"
       x="0"
       y="0"
       width="100%"
       height="100%" />
    <use
       id="use1022"
       inkscape:spray-origin="#path856"
       xlink:href="#path856"
       transform="matrix(0.45055204,0,0,0.45055204,1279.3125,523.0606)"
       style="stroke-width:2.2195"
       x="0"
       y="0"
       width="100%"
       height="100%" />
    <use
       id="use1024"
       inkscape:spray-origin="#path856"
       xlink:href="#path856"
       transform="matrix(0.39958661,0,0,0.39958661,1276.105,554.89478)"
       style="stroke-width:2.50259"
       x="0"
       y="0"
       width="100%"
       height="100%" />
    <use
       id="use1026"
       inkscape:spray-origin="#path856"
       xlink:href="#path856"
       transform="matrix(1.180164,0,0,1.180164,1523.8915,-163.87453)"
       style="stroke-width:0.84734"
       x="0"
       y="0"
       width="100%"
       height="100%" />
    <use
       id="use1028"
       inkscape:spray-origin="#path856"
       xlink:href="#path856"
       transform="matrix(1.044029,0,0,1.044029,1637.9411,-94.337964)"
       style="stroke-width:0.957828"
       x="0"
       y="0"
       width="100%"
       height="100%" />
    <use
       id="use1030"
       inkscape:spray-origin="#path856"
       xlink:href="#path856"
       transform="matrix(0.54523356,0,0,0.54523356,1681.2609,366.81346)"
       style="stroke-width:1.83408"
       x="0"
       y="0"
       width="100%"
       height="100%" />
    <use
       id="use1032"
       inkscape:spray-origin="#path856"
       xlink:href="#path856"
       transform="matrix(1.3905727,0,0,1.3905727,1941.8579,-311.50959)"
       style="stroke-width:0.719128"
       x="0"
       y="0"
       width="100%"
       height="100%" />
    <use
       id="use1034"
       inkscape:spray-origin="#path856"
       xlink:href="#path856"
       transform="matrix(0.43417163,0,0,0.43417163,1762.2054,514.34888)"
       style="stroke-width:2.30324"
       x="0"
       y="0"
       width="100%"
       height="100%" />
    <use
       id="use1036"
       inkscape:spray-origin="#path856"
       xlink:href="#path856"
       transform="matrix(0.67302626,0,0,0.67302626,1979.3077,257.32031)"
       style="stroke-width:1.48583"
       x="0"
       y="0"
       width="100%"
       height="100%" />
    <use
       id="use1038"
       inkscape:spray-origin="#path856"
       xlink:href="#path856"
       transform="matrix(0.34907507,0,0,0.34907507,1996.852,564.2778)"
       style="stroke-width:2.86471"
       x="0"
       y="0"
       width="100%"
       height="100%" />
  </g>
  <g
     inkscape:groupmode="layer"
     id="layer14"
     inkscape:label="spacebar"
     sodipodi:insensitive="true"
     style="display:none;opacity:0.230921">
    <path
       style="fill:none;stroke:#ff00ff"
       d="m 960,860 h 115 v -9 l -4,-16 H 960"
       id="path1976"
       sodipodi:nodetypes="ccccc" />
    <path
       style="fill:none;stroke:#ff00ff"
       d="m 1071,835 v 10 l 4,15"
       id="path1978"
       sodipodi:nodetypes="ccc" />
    <path
       style="fill:none;stroke:#ff00ff"
       d="M 1071,845 H 960"
       id="path1980"
       sodipodi:nodetypes="cc" />
  </g>
</svg>
